<mxfile host="app.diagrams.net" modified="2023-11-27T17:37:40.450Z" agent="Mozilla/5.0 (Windows NT 10.0; Win64; x64) AppleWebKit/537.36 (KHTML, like Gecko) Chrome/119.0.0.0 Safari/537.36" etag="_I5yGqJfgguCRTKdG5jM" version="22.1.4" type="device">
  <diagram name="PÃ¡gina-1" id="aMLyxMj-DuTNKeh4W4zz">
    <mxGraphModel dx="548" dy="320" grid="1" gridSize="10" guides="1" tooltips="1" connect="1" arrows="1" fold="1" page="1" pageScale="1" pageWidth="827" pageHeight="1169" math="0" shadow="0">
      <root>
        <mxCell id="0" />
        <mxCell id="1" parent="0" />
        <mxCell id="DgRj5Q9yiNNn-70P2Ktp-1" value="User Schema" style="swimlane;whiteSpace=wrap;html=1;" vertex="1" parent="1">
          <mxGeometry x="80" y="290" width="200" height="360" as="geometry" />
        </mxCell>
        <mxCell id="DgRj5Q9yiNNn-70P2Ktp-3" value="Name: type: String, Required" style="rounded=0;whiteSpace=wrap;html=1;" vertex="1" parent="DgRj5Q9yiNNn-70P2Ktp-1">
          <mxGeometry y="30" width="200" height="20" as="geometry" />
        </mxCell>
        <mxCell id="DgRj5Q9yiNNn-70P2Ktp-4" value="(&lt;b&gt;Index&lt;/b&gt;)Email: type: String, Required, Unique" style="rounded=0;whiteSpace=wrap;html=1;" vertex="1" parent="DgRj5Q9yiNNn-70P2Ktp-1">
          <mxGeometry y="60" width="200" height="30" as="geometry" />
        </mxCell>
        <mxCell id="DgRj5Q9yiNNn-70P2Ktp-5" value="Pass: type: String, Required" style="rounded=0;whiteSpace=wrap;html=1;" vertex="1" parent="DgRj5Q9yiNNn-70P2Ktp-1">
          <mxGeometry y="100" width="200" height="20" as="geometry" />
        </mxCell>
        <mxCell id="DgRj5Q9yiNNn-70P2Ktp-6" value="Biografy: type: String, not Required" style="rounded=0;whiteSpace=wrap;html=1;" vertex="1" parent="DgRj5Q9yiNNn-70P2Ktp-1">
          <mxGeometry y="130" width="200" height="20" as="geometry" />
        </mxCell>
        <mxCell id="DgRj5Q9yiNNn-70P2Ktp-8" value="UserType: type: Boolean, Required" style="rounded=0;whiteSpace=wrap;html=1;" vertex="1" parent="DgRj5Q9yiNNn-70P2Ktp-1">
          <mxGeometry y="160" width="200" height="20" as="geometry" />
        </mxCell>
        <mxCell id="DgRj5Q9yiNNn-70P2Ktp-7" value="Lib: type: Schema, Required" style="rounded=0;whiteSpace=wrap;html=1;" vertex="1" parent="DgRj5Q9yiNNn-70P2Ktp-1">
          <mxGeometry y="190" width="200" height="20" as="geometry" />
        </mxCell>
        <mxCell id="DgRj5Q9yiNNn-70P2Ktp-29" value="AllowAdultContent: type: Boolean, not Required" style="rounded=0;whiteSpace=wrap;html=1;" vertex="1" parent="DgRj5Q9yiNNn-70P2Ktp-1">
          <mxGeometry y="220" width="200" height="30" as="geometry" />
        </mxCell>
        <mxCell id="DgRj5Q9yiNNn-70P2Ktp-30" value="Lib: type: Schema, Required" style="rounded=0;whiteSpace=wrap;html=1;" vertex="1" parent="DgRj5Q9yiNNn-70P2Ktp-1">
          <mxGeometry y="259.5" width="200" height="20" as="geometry" />
        </mxCell>
        <mxCell id="DgRj5Q9yiNNn-70P2Ktp-32" value="FriendsList: type: Array, not Required" style="rounded=0;whiteSpace=wrap;html=1;" vertex="1" parent="DgRj5Q9yiNNn-70P2Ktp-1">
          <mxGeometry y="292" width="200" height="25" as="geometry" />
        </mxCell>
        <mxCell id="DgRj5Q9yiNNn-70P2Ktp-34" value="DateOfBirth: type: String, Required" style="rounded=0;whiteSpace=wrap;html=1;" vertex="1" parent="DgRj5Q9yiNNn-70P2Ktp-1">
          <mxGeometry y="330" width="200" height="20" as="geometry" />
        </mxCell>
        <mxCell id="DgRj5Q9yiNNn-70P2Ktp-10" value="Lib Schema" style="swimlane;whiteSpace=wrap;html=1;" vertex="1" parent="1">
          <mxGeometry x="340" y="280" width="200" height="130" as="geometry">
            <mxRectangle x="340" y="280" width="110" height="30" as="alternateBounds" />
          </mxGeometry>
        </mxCell>
        <mxCell id="DgRj5Q9yiNNn-70P2Ktp-26" value="Games: type: Array, not Required" style="rounded=0;whiteSpace=wrap;html=1;" vertex="1" parent="DgRj5Q9yiNNn-70P2Ktp-10">
          <mxGeometry y="30" width="200" height="20" as="geometry" />
        </mxCell>
        <mxCell id="DgRj5Q9yiNNn-70P2Ktp-27" value="DownloadedGames: type: Array, not Required" style="rounded=0;whiteSpace=wrap;html=1;" vertex="1" parent="DgRj5Q9yiNNn-70P2Ktp-10">
          <mxGeometry y="60" width="200" height="30" as="geometry" />
        </mxCell>
        <mxCell id="DgRj5Q9yiNNn-70P2Ktp-28" value="MyGames: type: Array, not Required" style="rounded=0;whiteSpace=wrap;html=1;" vertex="1" parent="DgRj5Q9yiNNn-70P2Ktp-10">
          <mxGeometry y="100" width="200" height="20" as="geometry" />
        </mxCell>
        <mxCell id="DgRj5Q9yiNNn-70P2Ktp-9" style="edgeStyle=orthogonalEdgeStyle;rounded=0;orthogonalLoop=1;jettySize=auto;html=1;entryX=-0.005;entryY=0.086;entryDx=0;entryDy=0;entryPerimeter=0;" edge="1" parent="1" source="DgRj5Q9yiNNn-70P2Ktp-7" target="DgRj5Q9yiNNn-70P2Ktp-10">
          <mxGeometry relative="1" as="geometry">
            <mxPoint x="330" y="470" as="targetPoint" />
          </mxGeometry>
        </mxCell>
        <mxCell id="DgRj5Q9yiNNn-70P2Ktp-35" value="Lib Schema" style="swimlane;whiteSpace=wrap;html=1;" vertex="1" parent="1">
          <mxGeometry x="590" y="260" width="200" height="510" as="geometry">
            <mxRectangle x="610" y="280" width="110" height="30" as="alternateBounds" />
          </mxGeometry>
        </mxCell>
        <mxCell id="DgRj5Q9yiNNn-70P2Ktp-36" value="Name: type: String, Required" style="rounded=0;whiteSpace=wrap;html=1;" vertex="1" parent="DgRj5Q9yiNNn-70P2Ktp-35">
          <mxGeometry y="30" width="200" height="20" as="geometry" />
        </mxCell>
        <mxCell id="DgRj5Q9yiNNn-70P2Ktp-37" value="(&lt;b&gt;Index&lt;/b&gt;)TitleSlug: type: String, Required, Unique" style="rounded=0;whiteSpace=wrap;html=1;" vertex="1" parent="DgRj5Q9yiNNn-70P2Ktp-35">
          <mxGeometry y="60" width="200" height="30" as="geometry" />
        </mxCell>
        <mxCell id="DgRj5Q9yiNNn-70P2Ktp-38" value="Description: type: String, not Required" style="rounded=0;whiteSpace=wrap;html=1;" vertex="1" parent="DgRj5Q9yiNNn-70P2Ktp-35">
          <mxGeometry y="100" width="200" height="30" as="geometry" />
        </mxCell>
        <mxCell id="DgRj5Q9yiNNn-70P2Ktp-40" value="Description: type: String, not Required" style="rounded=0;whiteSpace=wrap;html=1;" vertex="1" parent="DgRj5Q9yiNNn-70P2Ktp-35">
          <mxGeometry y="140" width="200" height="30" as="geometry" />
        </mxCell>
        <mxCell id="DgRj5Q9yiNNn-70P2Ktp-41" value="Price: type: Float, Required" style="rounded=0;whiteSpace=wrap;html=1;" vertex="1" parent="DgRj5Q9yiNNn-70P2Ktp-35">
          <mxGeometry y="180" width="200" height="20" as="geometry" />
        </mxCell>
        <mxCell id="DgRj5Q9yiNNn-70P2Ktp-42" value="Price: type: Float, Required" style="rounded=0;whiteSpace=wrap;html=1;" vertex="1" parent="DgRj5Q9yiNNn-70P2Ktp-35">
          <mxGeometry y="210" width="200" height="20" as="geometry" />
        </mxCell>
        <mxCell id="DgRj5Q9yiNNn-70P2Ktp-43" value="Tags: type: Array, Required" style="rounded=0;whiteSpace=wrap;html=1;" vertex="1" parent="DgRj5Q9yiNNn-70P2Ktp-35">
          <mxGeometry y="240" width="200" height="20" as="geometry" />
        </mxCell>
        <mxCell id="DgRj5Q9yiNNn-70P2Ktp-45" value="Achievments: type: Array, Required" style="rounded=0;whiteSpace=wrap;html=1;" vertex="1" parent="DgRj5Q9yiNNn-70P2Ktp-35">
          <mxGeometry y="270" width="200" height="20" as="geometry" />
        </mxCell>
        <mxCell id="DgRj5Q9yiNNn-70P2Ktp-46" value="GameRating: type: Number, not Required" style="rounded=0;whiteSpace=wrap;html=1;" vertex="1" parent="DgRj5Q9yiNNn-70P2Ktp-35">
          <mxGeometry y="300" width="200" height="30" as="geometry" />
        </mxCell>
        <mxCell id="DgRj5Q9yiNNn-70P2Ktp-47" value="Achievments: type: Array, Required" style="rounded=0;whiteSpace=wrap;html=1;" vertex="1" parent="DgRj5Q9yiNNn-70P2Ktp-35">
          <mxGeometry y="340" width="200" height="20" as="geometry" />
        </mxCell>
        <mxCell id="DgRj5Q9yiNNn-70P2Ktp-48" value="GameFiles: type: Object, Required" style="rounded=0;whiteSpace=wrap;html=1;" vertex="1" parent="DgRj5Q9yiNNn-70P2Ktp-35">
          <mxGeometry y="370" width="200" height="20" as="geometry" />
        </mxCell>
        <mxCell id="DgRj5Q9yiNNn-70P2Ktp-49" value="GameImage: type: Object, Required" style="rounded=0;whiteSpace=wrap;html=1;" vertex="1" parent="DgRj5Q9yiNNn-70P2Ktp-35">
          <mxGeometry y="400" width="200" height="20" as="geometry" />
        </mxCell>
        <mxCell id="DgRj5Q9yiNNn-70P2Ktp-50" value="AditionalAssets: type: Array, not Required" style="rounded=0;whiteSpace=wrap;html=1;" vertex="1" parent="DgRj5Q9yiNNn-70P2Ktp-35">
          <mxGeometry y="430" width="200" height="30" as="geometry" />
        </mxCell>
        <mxCell id="DgRj5Q9yiNNn-70P2Ktp-51" value="ParentalRating: type: Number, not Required" style="rounded=0;whiteSpace=wrap;html=1;" vertex="1" parent="DgRj5Q9yiNNn-70P2Ktp-35">
          <mxGeometry y="470" width="200" height="30" as="geometry" />
        </mxCell>
        <mxCell id="DgRj5Q9yiNNn-70P2Ktp-39" style="edgeStyle=orthogonalEdgeStyle;rounded=0;orthogonalLoop=1;jettySize=auto;html=1;entryX=0;entryY=0.024;entryDx=0;entryDy=0;entryPerimeter=0;" edge="1" parent="1" source="DgRj5Q9yiNNn-70P2Ktp-26" target="DgRj5Q9yiNNn-70P2Ktp-35">
          <mxGeometry relative="1" as="geometry" />
        </mxCell>
        <mxCell id="DgRj5Q9yiNNn-70P2Ktp-52" value="src: type: String" style="rounded=0;whiteSpace=wrap;html=1;" vertex="1" parent="1">
          <mxGeometry x="840" y="610" width="200" height="80" as="geometry" />
        </mxCell>
      </root>
    </mxGraphModel>
  </diagram>
</mxfile>
